<svg id="Calque_1" data-name="Calque 1" xmlns="http://www.w3.org/2000/svg" viewBox="0 0 324 86"><title>logo</title><polygon points="161.2 24.98 161.2 35.64 144.31 35.64 144.31 76.78 133.68 76.78 133.68 35.64 116.41 35.64 116.41 24.98 161.2 24.98"/><polygon points="300.4 24.98 300.4 76.78 289.78 76.78 289.78 55.82 262.88 55.82 262.88 76.78 252.58 76.78 252.58 24.98 262.88 24.98 262.88 45.94 289.78 45.94 289.78 24.98 300.4 24.98"/><rect x="170.55" y="25.82" width="10.96" height="50.96"/><circle cx="176.03" cy="14.7" r="5.48"/><rect x="2.5" y="24.31" width="10.63" height="51.81"/><polygon points="14.54 50.46 38.66 24.98 52.66 24.98 29.26 50.22 53.55 75.94 38.83 76.78 14.54 50.46"/><path d="M217.94,34.77H240c.54,0,1.08,0,1.61.08V25H216.68a24.82,24.82,0,0,0-17.8,7.61,26.25,26.25,0,0,0-7.4,18.3c0,14.24,11.34,25.9,25.2,25.9h24.95V46.07H219.5V56.15h12.07V66.89H217.94a15.89,15.89,0,0,1-15.62-16.06,16.24,16.24,0,0,1,4.58-11.34A15.35,15.35,0,0,1,217.94,34.77Z"/><rect x="310.54" y="25.82" width="10.96" height="50.96"/><circle cx="316.02" cy="14.7" r="5.48"/><path d="M84.37,25a25.91,25.91,0,1,0,25.91,25.91A25.9,25.9,0,0,0,84.37,25Zm0,38a12.06,12.06,0,0,1-9.78-5,3.85,3.85,0,0,1-2.31.76,3.92,3.92,0,0,1,0-7.84h0A12.09,12.09,0,1,1,84.37,63Z"/></svg>